<?xml version="1.0" standalone="no"?>
<!DOCTYPE svg PUBLIC "-//W3C//DTD SVG 20010904//EN"
 "http://www.w3.org/TR/2001/REC-SVG-20010904/DTD/svg10.dtd">
<svg version="1.0" xmlns="http://www.w3.org/2000/svg"
 width="512.000000pt" height="512.000000pt" viewBox="0 0 512.000000 512.000000"
 preserveAspectRatio="xMidYMid meet">
<metadata>
Created by potrace 1.16, written by Peter Selinger 2001-2019
</metadata>
<g transform="translate(0.000000,512.000000) scale(0.100000,-0.100000)"
fill="#000000" stroke="none">
<path d="M890 5045 l0 -76 113 3 112 3 3 73 3 72 -30 0 c-21 0 -32 -6 -36 -20
-10 -32 -105 -26 -105 6 0 9 -11 14 -30 14 l-30 0 0 -75z"/>
<path d="M1190 5054 l0 -61 138 -6 c75 -3 139 -2 143 1 3 4 3 34 1 68 l-4 60
-139 0 -139 -1 0 -61z"/>
<path d="M1520 5075 c0 -43 1 -45 30 -45 29 0 30 2 30 45 0 43 -1 45 -30 45
-29 0 -30 -2 -30 -45z"/>
<path d="M1622 5073 c3 -54 23 -68 33 -24 8 38 -2 71 -21 71 -12 0 -14 -11
-12 -47z"/>
<path d="M2040 5102 c0 -31 22 -42 81 -42 59 0 86 16 75 45 -4 12 -23 15 -81
15 -66 0 -75 -2 -75 -18z"/>
<path d="M2285 5064 c-4 -31 -3 -157 1 -280 l7 -224 50 0 c46 0 49 -1 43 -22
-3 -13 -6 -29 -6 -36 0 -10 -40 -12 -182 -10 -181 3 -183 3 -186 26 -3 18 -10
22 -43 22 -35 0 -39 -3 -39 -25 l0 -26 -122 3 -123 3 -3 65 c-2 36 -7 69 -12
74 -5 5 -29 5 -55 2 l-46 -7 3 -107 3 -107 438 -3 437 -2 0 50 c0 39 -4 52
-17 57 -30 11 -33 24 -33 135 l0 107 33 3 c18 2 32 8 31 16 -1 6 -2 64 -2 127
l-2 114 -67 3 -68 3 -3 48 c-4 68 -28 63 -37 -9z"/>
<path d="M2588 5113 c18 -2 45 -2 60 0 15 2 0 4 -33 4 -33 0 -45 -2 -27 -4z"/>
<path d="M2798 5113 c12 -2 30 -2 40 0 9 3 -1 5 -23 4 -22 0 -30 -2 -17 -4z"/>
<path d="M2915 5110 c3 -5 15 -10 26 -10 10 0 19 5 19 10 0 6 -12 10 -26 10
-14 0 -23 -4 -19 -10z"/>
<path d="M3432 5098 c3 -22 8 -23 97 -26 71 -2 99 1 117 13 44 29 27 35 -97
35 -119 0 -120 0 -117 -22z"/>
<path d="M4131 4799 c-1 -230 2 -325 10 -335 6 -8 24 -14 40 -14 l29 0 0 119
c0 94 3 121 15 131 13 11 15 44 13 214 l-3 201 -51 3 -52 3 -1 -322z"/>
<path d="M4408 5113 c46 -2 118 -2 160 0 42 1 5 3 -83 3 -88 0 -123 -2 -77 -3z"/>
<path d="M88 5102 l-88 -3 0 -34 0 -35 135 0 135 0 6 25 c13 52 5 54 -188 47z"/>
<path d="M567 5094 c-4 -4 -7 -78 -7 -165 0 -182 -6 -173 105 -167 l60 3 3 83
3 82 -40 0 -40 0 -3 83 -3 82 -35 3 c-20 2 -39 0 -43 -4z"/>
<path d="M3130 5091 l-45 -6 0 -125 0 -125 143 -3 142 -3 0 131 0 130 -32 1
c-18 0 -62 2 -98 3 -36 2 -85 0 -110 -3z m148 -148 l-3 -38 -62 -3 -63 -3 0
41 0 40 66 0 65 0 -3 -37z"/>
<path d="M4927 5093 l-87 -4 2 -192 3 -192 130 0 130 0 3 128 c3 138 0 146
-53 133 -23 -6 -24 -10 -27 -94 l-3 -87 -46 -3 c-57 -4 -59 1 -59 140 0 113
-7 106 120 110 l75 3 0 30 c0 29 -1 30 -50 31 -27 0 -89 -1 -138 -3z"/>
<path d="M4737 5084 c-9 -9 -9 -97 0 -186 6 -66 7 -68 34 -68 24 0 29 5 34 33
3 17 5 75 3 127 l-3 95 -30 3 c-17 2 -34 0 -38 -4z"/>
<path d="M1716 5071 c-3 -5 -3 -16 0 -25 5 -13 24 -16 104 -16 106 0 110 -2
110 -60 l0 -29 83 -3 c74 -3 82 -5 82 -23 0 -18 -9 -21 -78 -26 -65 -4 -80 -9
-93 -27 -10 -14 -26 -22 -45 -22 l-29 0 0 65 0 65 -98 0 c-63 0 -102 -4 -110
-12 -7 -7 -12 -31 -12 -54 0 -43 -10 -54 -51 -54 -15 0 -19 -7 -19 -35 0 -29
-4 -36 -25 -41 -22 -6 -25 -11 -25 -56 0 -48 1 -49 28 -46 23 3 27 8 30 41 2
20 9 37 15 38 7 0 43 0 81 -1 78 -2 86 4 86 63 0 37 1 37 40 37 47 0 53 -14
48 -101 l-3 -54 -45 -5 -45 -5 0 -55 0 -55 84 -3 c91 -3 101 1 101 51 0 25 3
27 39 27 40 0 40 0 43 43 3 38 6 42 31 45 25 3 27 1 27 -32 0 -33 2 -36 29
-36 29 0 30 -2 33 -52 3 -49 5 -53 28 -53 l25 0 3 223 2 222 -95 0 -95 0 0 29
c0 27 -3 29 -47 33 -100 9 -231 9 -237 -1z"/>
<path d="M3460 5035 c-21 -54 -10 -115 20 -115 11 0 22 -5 25 -10 3 -6 17 -7
30 -4 l25 6 2 -208 3 -209 35 0 c32 0 35 3 38 33 2 17 4 33 5 33 1 1 81 5 177
8 l175 6 3 219 c2 153 -1 223 -9 232 -8 10 -37 14 -100 14 -84 0 -89 -1 -94
-22 -2 -13 -4 -32 -2 -43 2 -19 -5 -20 -133 -25 -74 -3 -140 -4 -146 -2 -7 2
-15 25 -18 52 -8 58 -22 72 -36 35z m425 -245 l0 -115 -102 -3 c-79 -2 -103 0
-103 10 0 28 18 37 80 40 l65 3 3 68 3 67 -56 0 -55 0 0 -64 c0 -60 -1 -64
-25 -68 l-25 -5 0 87 c0 48 3 90 7 94 4 4 52 5 107 4 l101 -3 0 -115z m-240
-109 c-3 -6 -11 -11 -17 -11 -6 0 -6 6 2 15 14 17 26 13 15 -4z"/>
<path d="M4347 5023 c-4 -3 -7 -61 -7 -129 0 -91 3 -123 13 -127 19 -7 253 -8
271 -1 13 5 16 27 16 135 l0 129 -143 0 c-79 0 -147 -3 -150 -7z m211 -125
l-3 -53 -57 -3 -58 -3 0 56 0 55 61 0 60 0 -3 -52z"/>
<path d="M373 5013 c-10 -3 -13 -45 -13 -159 l0 -154 40 0 40 0 0 155 c0 127
-3 155 -14 155 -8 0 -20 2 -28 4 -7 3 -19 2 -25 -1z"/>
<path d="M2603 5013 c-10 -3 -13 -47 -13 -169 l0 -164 163 2 162 3 3 155 c2
137 1 156 -15 167 -17 13 -272 18 -300 6z m195 -160 l3 -53 -50 0 -51 0 0 56
0 55 48 -3 47 -3 3 -52z"/>
<path d="M92 4893 l3 -98 90 0 90 0 0 90 0 90 -37 3 -37 3 -3 -63 c-2 -48 -7
-63 -18 -63 -12 0 -16 15 -18 68 l-3 67 -35 0 -35 0 3 -97z"/>
<path d="M945 4889 c-5 -16 -13 -20 -31 -16 -16 3 -24 0 -24 -9 0 -9 11 -14
29 -14 53 0 61 -8 61 -62 l0 -49 63 3 62 3 3 48 3 48 107 -1 c197 -2 182 -5
182 35 l0 35 -224 0 c-219 0 -225 0 -231 -21z"/>
<path d="M790 4680 l0 -180 24 -6 c13 -3 35 -4 47 -2 24 3 24 3 24 153 l0 150
-30 5 c-24 4 -31 11 -33 33 -2 15 -9 27 -18 27 -12 0 -14 -30 -14 -180z"/>
<path d="M1167 4773 c-4 -3 -7 -23 -7 -44 l0 -38 -92 -3 -93 -3 0 -135 0 -135
210 0 210 0 3 183 2 182 -113 0 c-63 0 -117 -3 -120 -7z m77 -189 c9 -3 16
-17 16 -30 0 -24 -1 -24 -95 -24 -93 0 -95 1 -95 23 0 13 3 27 7 30 8 9 146 9
167 1z"/>
<path d="M3182 4698 c-6 -6 -12 -22 -12 -35 0 -20 -5 -22 -57 -25 l-58 -3 -5
-65 -5 -65 -42 -3 -42 -3 -3 43 c-3 42 -4 43 -41 46 l-39 3 4 -290 c3 -289 3
-290 -19 -300 -21 -10 -21 -12 -16 -233 2 -123 6 -229 8 -235 6 -18 465 -19
483 -1 13 13 17 272 6 316 -6 21 -12 22 -90 22 l-84 0 0 270 0 270 139 0 139
0 7 30 c14 62 3 70 -90 70 l-84 0 -3 98 -3 97 -40 3 c-23 2 -46 -3 -53 -10z
m-37 -248 l0 -45 -45 0 -45 0 -3 39 c-4 46 8 57 58 54 34 -3 35 -4 35 -48z
m-175 -194 c0 -45 -4 -58 -22 -70 -17 -12 -24 -13 -30 -3 -5 9 -5 84 2 125 0
1 11 2 25 2 24 0 25 -3 25 -54z m110 -121 l0 -45 -40 0 -40 0 0 45 0 45 40 0
40 0 0 -45z m-40 -170 c0 -21 -5 -25 -29 -25 -25 0 -29 -4 -35 -37 -3 -21 -6
-59 -6 -85 l0 -48 45 0 45 0 0 -91 0 -90 -47 3 -48 3 -3 87 -3 87 -32 3 -32 3
-3 108 -3 107 76 0 c73 0 75 -1 75 -25z m180 -285 c0 -36 -2 -40 -25 -40 -29
0 -40 19 -31 55 5 18 13 25 31 25 22 0 25 -4 25 -40z"/>
<path d="M445 4678 c-3 -13 -5 -61 -3 -108 l3 -85 143 -3 142 -3 0 111 0 110
-140 0 c-136 0 -140 -1 -145 -22z m185 -88 c0 -28 -2 -30 -40 -30 -38 0 -40 2
-40 30 0 28 2 30 40 30 38 0 40 -2 40 -30z"/>
<path d="M73 4674 c-3 -8 -1 -29 4 -47 l9 -32 94 0 95 0 3 48 3 47 -101 0
c-82 0 -102 -3 -107 -16z"/>
<path d="M4264 4667 c-2 -7 -3 -69 -2 -137 3 -110 5 -125 21 -128 15 -3 17 7
17 107 l0 111 30 0 30 0 0 -105 0 -105 35 0 35 0 0 118 0 118 33 17 c31 15 30
16 -81 16 -84 1 -114 -2 -118 -12z"/>
<path d="M4522 4664 c-16 -11 -22 -25 -22 -55 l0 -39 45 0 c43 0 45 -1 45 -30
0 -29 -2 -30 -46 -30 l-45 0 3 -52 3 -53 70 0 70 0 3 138 3 137 -53 0 c-32 0
-62 -6 -76 -16z"/>
<path d="M4740 4656 c0 -14 -4 -28 -10 -31 -5 -3 -10 -15 -10 -26 0 -10 5 -19
10 -19 6 0 10 -37 10 -91 l0 -90 43 3 42 3 3 93 3 92 -25 0 c-29 0 -43 17 -27
33 6 6 11 21 11 34 0 18 -6 23 -25 23 -20 0 -25 -5 -25 -24z"/>
<path d="M3378 4652 c-24 -3 -28 -8 -28 -33 0 -30 0 -30 53 -27 50 3 52 4 55
34 3 33 -1 35 -80 26z"/>
<path d="M4917 4644 c-4 -4 -7 -76 -7 -161 l0 -153 -320 0 -320 0 0 -75 0 -75
196 0 c181 0 195 1 192 18 -3 15 -18 17 -126 20 -114 2 -122 4 -122 23 0 19 6
19 163 17 l162 -3 0 -95 c0 -91 -1 -95 -22 -98 -20 -3 -23 1 -23 28 0 27 -3
31 -22 28 -14 -2 -24 -12 -28 -28 -4 -18 -12 -25 -30 -25 -22 0 -25 5 -28 38
-3 36 -4 37 -42 37 -35 0 -39 -3 -42 -27 -3 -28 -4 -28 -73 -28 -65 0 -70 2
-73 22 -3 20 -10 22 -80 25 l-77 3 -5 95 c-5 91 -6 95 -29 98 -13 2 -28 -2
-33 -10 -9 -13 -10 -286 -1 -325 l5 -23 344 0 343 0 3 138 3 137 43 3 42 3 0
-140 0 -141 -40 0 -40 0 0 -100 0 -100 -44 0 c-44 0 -45 0 -48 38 -3 36 -4 37
-45 40 l-43 3 0 -120 0 -121 45 0 45 0 0 40 0 40 45 0 45 0 0 -176 0 -176 -35
-35 c-19 -19 -39 -32 -45 -28 -6 3 -10 48 -10 106 l0 99 -40 0 -39 0 -3 -107
-3 -108 -166 -3 -167 -2 -4 30 -5 30 73 0 73 0 3 68 3 67 68 3 67 3 0 44 0 45
-105 0 -104 0 -3 103 -3 102 -32 3 c-33 3 -33 4 -33 57 0 57 -11 75 -35 55
-13 -11 -15 -70 -15 -376 l0 -364 234 0 235 0 3 28 c3 24 7 27 46 30 l42 3 0
-526 0 -526 43 3 42 3 3 137 3 138 99 0 100 0 0 50 0 50 -94 0 c-76 0 -95 3
-100 16 -3 9 -6 74 -6 145 l0 129 -30 0 c-28 0 -30 2 -30 39 0 26 5 41 16 45
9 3 67 6 130 6 l114 0 0 99 c0 79 -3 100 -15 105 -8 3 -15 14 -15 25 0 18 -8
20 -77 23 l-78 3 -3 218 -2 218 47 -3 48 -3 3 -62 3 -63 44 0 45 0 0 110 0
109 -132 3 -133 3 -3 33 c-3 30 -1 32 27 32 30 0 30 0 33 63 l3 62 40 5 40 5
3 189 c2 188 3 189 28 213 16 15 37 23 60 23 33 0 34 1 34 40 l0 39 -57 3 -58
3 -5 125 -5 125 -35 3 c-20 2 -39 0 -43 -4z m7 -1553 c13 -21 -7 -41 -40 -41
-30 0 -34 3 -34 25 0 22 4 25 34 25 19 0 37 -4 40 -9z m154 -53 c-3 -63 -3
-63 -35 -66 l-33 -3 0 65 0 66 35 0 36 0 -3 -62z"/>
<path d="M4015 4579 c-10 -15 3 -25 16 -12 7 7 7 13 1 17 -6 3 -14 1 -17 -5z"/>
<path d="M2500 4456 c0 -57 -3 -111 -6 -120 -5 -13 -25 -16 -116 -16 l-109 0
3 -62 3 -63 60 -3 c86 -5 105 2 105 38 0 27 3 30 34 30 32 0 34 -2 32 -32 -1
-30 2 -33 31 -36 23 -2 34 2 40 15 4 10 7 93 5 186 l-3 167 -40 0 -39 0 0
-104z"/>
<path d="M2667 4543 c-4 -3 -7 -51 -7 -105 0 -80 -3 -98 -15 -98 -12 0 -15
-15 -15 -75 0 -60 3 -75 15 -75 13 0 15 -21 15 -126 l0 -125 48 3 47 3 0 110
0 110 -37 3 c-32 3 -38 7 -38 27 0 27 19 49 61 70 l29 16 0 134 0 135 -48 0
c-27 0 -52 -3 -55 -7z"/>
<path d="M57 4523 c-4 -3 -7 -15 -7 -25 0 -11 -11 -23 -25 -28 -18 -7 -25 -17
-25 -35 l0 -25 124 0 c68 0 131 3 140 6 12 5 16 20 16 60 l0 54 -108 0 c-60 0
-112 -3 -115 -7z"/>
<path d="M5080 4481 c0 -33 5 -51 14 -54 21 -8 26 2 26 55 0 41 -3 48 -20 48
-17 0 -20 -7 -20 -49z"/>
<path d="M3669 4453 l6 -38 135 0 135 0 3 38 3 37 -144 0 -144 0 6 -37z"/>
<path d="M100 4155 l0 -165 184 0 c112 0 186 4 188 10 2 5 2 80 0 165 l-3 155
-184 0 -185 0 0 -165z m240 -10 c0 -29 -4 -36 -25 -41 -14 -3 -36 -3 -50 0
-21 5 -25 12 -25 41 l0 35 50 0 50 0 0 -35z"/>
<path d="M550 4155 l0 -166 53 3 52 3 0 160 0 160 -52 3 -53 3 0 -166z"/>
<path d="M750 4275 l0 -45 110 0 110 0 0 45 0 45 -110 0 -110 0 0 -45z"/>
<path d="M1057 4314 c-4 -4 -7 -25 -7 -46 l0 -38 46 0 c44 0 45 -1 42 -27 -3
-28 -3 -28 -98 -33 -95 -5 -95 -5 -98 -32 -3 -25 0 -28 25 -28 15 -1 65 -3
111 -6 45 -4 98 -3 117 0 l36 7 -3 102 -3 102 -80 3 c-45 1 -84 0 -88 -4z"/>
<path d="M1402 4213 l3 -108 38 -3 37 -3 0 110 0 111 -40 0 -41 0 3 -107z"/>
<path d="M1580 4281 c0 -28 7 -48 20 -61 11 -11 20 -31 20 -45 0 -23 3 -25 50
-25 l50 0 0 -75 0 -75 -71 0 -70 0 3 -42 3 -43 120 -3 c118 -3 134 -8 135 -39
0 -10 -33 -13 -130 -13 l-130 0 0 -125 0 -125 90 0 90 0 0 70 c0 76 -4 81 -54
55 -37 -20 -36 -20 -36 20 l0 36 73 -3 72 -3 3 -117 3 -117 -118 -3 -118 -3
-3 -42 -3 -42 93 -3 c92 -3 93 -3 93 -28 0 -25 -2 -25 -95 -30 -95 -5 -95 -5
-98 -32 l-3 -28 140 0 141 0 0 35 c0 32 2 35 30 35 23 0 31 -5 36 -24 3 -14 3
-30 -1 -35 -4 -8 41 -11 144 -11 l151 0 0 -35 0 -34 -92 -3 -93 -3 -3 -42 c-3
-42 -2 -43 27 -43 l31 0 0 -115 0 -115 25 0 24 0 3 118 3 117 35 0 35 0 3
-117 3 -118 39 0 c43 0 52 13 20 30 -30 16 -26 48 8 52 l27 3 3 163 c2 120 6
162 15 162 34 -1 37 -15 39 -210 l3 -195 55 0 55 0 3 242 2 243 -95 -3 -95 -2
0 -37 c0 -35 -2 -38 -29 -38 -27 0 -30 3 -33 38 l-3 37 -132 0 c-94 0 -136 4
-145 13 -10 10 -12 74 -10 280 1 147 2 273 2 280 0 9 61 12 270 12 l270 0 0
-177 c0 -98 -4 -184 -8 -191 -7 -9 -44 -12 -153 -10 l-144 3 -3 158 -3 157
-64 0 c-59 0 -65 -2 -70 -22 -3 -13 -4 -108 -3 -213 l3 -190 212 -3 212 -2 3
32 c3 32 4 33 58 38 l55 5 3 249 c1 137 -1 253 -5 257 -8 7 -241 12 -505 10
l-138 -1 0 -25 c0 -23 -3 -25 -50 -25 l-50 0 0 -65 0 -65 -30 0 -30 0 0 125 0
125 84 0 c81 0 84 1 90 25 3 13 3 43 0 65 l-7 41 -101 -3 -101 -3 -3 -52 -3
-53 -44 0 -44 0 -3 53 c-3 48 -5 52 -30 55 -27 3 -28 1 -28 -37z m21 -28 c-9
-16 -10 -14 -11 12 0 21 3 26 11 18 8 -8 8 -16 0 -30z"/>
<path d="M2050 4260 l0 -60 69 0 c79 0 86 7 75 77 l-6 43 -69 0 -69 0 0 -60z"/>
<path d="M3260 4215 l0 -105 50 0 50 0 0 105 0 105 -50 0 -50 0 0 -105z"/>
<path d="M3490 4120 l0 -200 50 0 50 0 0 200 0 200 -50 0 -50 0 0 -200z"/>
<path d="M3654 4306 c-3 -8 -4 -27 -2 -43 3 -27 5 -28 70 -31 l67 -3 3 -67 3
-67 40 0 40 0 3 89 c4 129 -2 136 -124 136 -72 0 -96 -3 -100 -14z"/>
<path d="M3950 4206 l0 -116 40 0 41 0 -3 113 -3 112 -37 3 -38 3 0 -115z"/>
<path d="M3645 4167 c-4 -14 -5 -36 -3 -48 3 -21 9 -24 51 -27 l48 -3 -3 48
-3 48 -42 3 c-38 3 -43 0 -48 -21z"/>
<path d="M756 4162 c-2 -4 -3 -52 -1 -107 5 -122 -1 -135 -61 -135 l-45 0 3
-42 3 -43 284 -3 c164 -1 287 2 290 7 3 5 5 57 3 115 l-3 107 -127 -3 c-111
-3 -127 -5 -130 -20 -3 -16 5 -18 72 -18 42 0 78 -5 81 -11 4 -6 4 -26 0 -45
l-6 -35 -122 3 -122 3 -6 115 c-4 63 -7 116 -8 118 -3 6 -100 1 -105 -6z"/>
<path d="M1333 4053 c-22 -4 -23 -9 -23 -103 l0 -99 38 -3 c36 -3 37 -4 37
-43 0 -40 0 -40 -42 -43 -38 -3 -43 -6 -43 -28 l0 -25 93 3 92 3 3 108 3 107
-51 0 -50 0 0 43 c0 23 -3 52 -6 65 -6 22 -10 23 -51 15z"/>
<path d="M3303 4043 l-43 -4 0 -50 0 -49 50 0 50 0 0 55 c0 30 -3 54 -7 53 -5
-1 -27 -3 -50 -5z"/>
<path d="M3650 3970 l0 -51 103 3 102 3 3 48 3 47 -105 0 -106 0 0 -50z"/>
<path d="M3917 3993 c-4 -3 -7 -35 -7 -69 l0 -63 -127 -3 c-123 -3 -128 -4
-131 -25 -3 -21 -9 -22 -85 -25 l-82 -3 -3 -162 -2 -163 25 0 c22 0 25 4 25
38 0 20 4 42 8 49 4 6 34 13 67 15 l60 3 3 43 c3 42 3 42 42 42 39 0 39 0 42
-42 2 -35 8 -45 30 -56 26 -12 32 -25 40 -77 3 -16 12 -21 46 -23 41 -3 42 -4
42 -38 l0 -34 -70 0 -70 0 0 45 0 45 -90 0 c-86 0 -90 -1 -91 -22 -3 -88 -1
-83 -47 -86 l-43 -3 3 -47 3 -47 249 -3 c175 -2 253 1 262 9 10 8 14 37 14
100 l0 89 -34 0 c-26 0 -36 5 -41 20 -9 28 13 53 42 47 34 -6 43 12 36 76 l-6
57 -38 0 c-38 0 -39 -1 -39 -34 l0 -34 -77 -4 c-81 -3 -95 3 -91 37 3 17 12
20 66 23 l62 3 0 44 0 44 -62 3 c-60 3 -63 4 -63 28 0 25 1 25 103 28 l102 3
0 89 0 90 -33 0 c-19 0 -37 -3 -40 -7z"/>
<path d="M2228 3943 c-2 -5 -2 -61 0 -125 l3 -118 95 0 94 0 0 125 0 125 -94
0 c-52 0 -96 -3 -98 -7z"/>
<path d="M560 3871 c0 -23 14 -41 31 -41 14 0 19 7 19 25 0 20 -5 25 -25 25
-14 0 -25 -4 -25 -9z"/>
<path d="M2665 3858 c-3 -7 -6 -73 -7 -147 l-3 -135 -32 -8 c-42 -11 -44 -22
-41 -193 l3 -140 40 0 40 0 3 58 c3 57 4 58 30 55 26 -3 27 -6 30 -68 5 -106
3 -109 -76 -112 l-67 -3 -1 -70 c-1 -38 0 -87 3 -108 l5 -37 166 2 167 3 0
105 0 105 -58 3 -58 3 3 42 3 42 55 5 55 5 3 37 3 37 -83 3 -83 3 -5 260 c-3
143 -7 261 -8 263 -7 8 -83 0 -87 -10z m83 -790 c-3 -51 -4 -53 -33 -53 -29 0
-30 2 -33 53 l-3 52 36 0 36 0 -3 -52z"/>
<path d="M34 3836 c-3 -8 -4 -27 -2 -43 3 -27 6 -28 61 -31 l58 -3 -3 -42 -3
-42 -73 3 -72 4 0 -46 c0 -39 3 -46 20 -46 11 0 20 -7 20 -15 0 -8 -9 -15 -20
-15 -17 0 -20 -7 -20 -50 l0 -50 58 0 c88 0 95 8 91 118 l-4 91 35 3 c34 3 35
5 35 43 l0 40 125 5 125 5 3 43 3 42 -216 0 c-177 0 -217 -3 -221 -14z"/>
<path d="M4444 3837 c-2 -7 -3 -60 -2 -118 l3 -104 78 -3 78 -3 -3 38 c-3 37
-4 38 -45 41 -42 3 -43 4 -43 38 0 33 1 34 40 34 l40 0 0 45 0 45 -70 0 c-49
0 -72 -4 -76 -13z"/>
<path d="M5074 3836 c-3 -8 -4 -27 -2 -43 2 -20 9 -29 26 -31 20 -3 22 1 22
42 0 40 -3 46 -20 46 -11 0 -23 -6 -26 -14z"/>
<path d="M4127 3793 c-3 -10 -5 -135 -5 -279 1 -144 -2 -266 -6 -273 -5 -7
-39 -11 -92 -11 l-85 0 3 -152 3 -153 293 -3 292 -2 0 55 0 54 -157 3 -158 3
-5 385 -5 385 -37 3 c-28 2 -37 -1 -41 -15z m-13 -689 c9 -4 16 -18 16 -34 0
-23 -5 -29 -31 -34 -17 -3 -35 -3 -40 0 -10 6 -12 57 -2 67 8 9 36 9 57 1z
m91 -104 c0 -34 -1 -35 -40 -35 -34 0 -40 3 -43 23 -6 42 5 53 45 50 36 -3 38
-5 38 -38z"/>
<path d="M717 3753 c-4 -3 -7 -17 -7 -30 0 -31 -33 -43 -121 -43 l-69 0 0
-100 0 -100 200 0 200 0 0 60 0 60 -55 0 -55 0 0 -40 0 -40 -105 0 -105 0 0
30 c0 30 1 30 53 30 65 0 75 6 79 50 l3 35 138 3 137 3 0 32 c0 18 -5 38 -12
45 -13 13 -269 18 -281 5z"/>
<path d="M1156 3658 c-3 -55 -5 -103 -3 -105 2 -2 12 -1 21 3 10 4 16 18 16
39 0 25 5 35 20 40 17 5 20 15 20 66 l0 59 -33 0 -34 0 -7 -102z"/>
<path d="M247 3664 c-4 -4 -7 -49 -7 -101 l0 -93 80 0 80 0 0 49 0 50 38 3
c37 3 37 3 37 48 l0 45 -111 3 c-60 1 -113 -1 -117 -4z"/>
<path d="M1291 3631 c-6 -11 -11 -36 -11 -55 0 -34 -2 -36 -35 -36 -44 0 -65
-36 -65 -115 l0 -55 -44 0 c-44 0 -45 0 -48 38 -3 35 -5 37 -40 40 l-37 3 -3
-78 -3 -78 -57 -3 -58 -3 0 46 0 45 -50 0 -50 0 0 -145 0 -145 -35 0 -35 0 0
145 0 145 -100 0 -100 0 0 -45 0 -45 60 0 60 0 2 -187 3 -188 38 -3 37 -3 0
-150 0 -149 -40 0 -40 0 0 110 0 110 -203 -2 -202 -3 0 -40 0 -40 127 -3 127
-3 3 -37 c3 -34 6 -37 36 -40 l33 -3 -7 -74 c-7 -74 -7 -74 20 -81 35 -8 33
-18 -9 -50 l-35 -26 0 -408 c0 -363 2 -409 16 -414 20 -8 428 -8 448 0 14 5
16 39 16 275 l0 268 -145 3 -145 3 0 -40 c0 -50 -24 -87 -53 -83 -22 3 -22 5
-22 258 l0 255 38 3 37 3 -7 -177 -6 -177 24 6 c13 4 84 7 157 7 l133 0 -3
118 -3 117 -97 3 -98 3 -2 227 -3 227 -45 5 -45 5 -3 57 c-3 66 -3 66 103 70
l60 3 3 82 3 82 97 3 97 3 3 38 c3 29 7 37 22 37 29 0 43 -35 35 -91 -7 -48
-6 -49 19 -49 22 0 26 -4 26 -29 0 -29 -2 -30 -52 -33 -48 -3 -53 -5 -52 -25
0 -13 1 -79 2 -148 l2 -125 178 2 177 3 0 265 0 265 -105 5 c-86 4 -104 8
-102 20 2 8 14 23 28 33 21 16 24 26 24 83 l0 64 34 0 c34 0 35 -1 38 -42 l3
-43 63 -3 63 -3 -3 103 -3 103 -92 3 c-83 2 -93 1 -102 -17z m83 -396 c14 -37
-3 -45 -90 -45 -81 0 -84 1 -84 23 0 13 3 27 7 30 3 4 41 7 84 7 59 0 78 -3
83 -15z m-6 -177 c3 -37 3 -38 -32 -38 -33 0 -36 3 -36 28 0 34 18 54 45 50
15 -2 21 -12 23 -40z m-130 -130 c3 -37 3 -38 -32 -38 -35 0 -36 1 -36 41 0
39 1 40 33 37 29 -3 32 -6 35 -40z m-298 -599 c0 -39 -1 -40 -32 -37 -30 3
-33 6 -36 41 -3 36 -3 37 32 37 35 0 36 -1 36 -41z m-32 -446 l-3 -178 -113
-3 c-156 -4 -152 -7 -152 133 l0 115 106 0 105 0 -3 38 -3 37 -57 3 c-43 2
-58 7 -58 17 0 12 18 15 90 15 l90 0 -2 -177z"/>
<path d="M700 1830 l0 -60 75 0 75 0 0 60 0 60 -75 0 -75 0 0 -60z"/>
<path d="M3027 3383 c-4 -3 -7 -86 -7 -184 0 -148 3 -180 16 -193 18 -19 79
-21 91 -3 4 6 10 73 13 147 l5 135 73 3 72 3 0 -31 c0 -30 0 -30 -55 -30 l-55
0 0 -90 0 -90 24 6 c18 4 30 0 43 -15 23 -27 127 -31 137 -5 12 31 7 329 -6
342 -13 13 -339 18 -351 5z"/>
<path d="M0 3291 c0 -90 0 -91 25 -91 35 0 46 29 43 108 l-3 67 -32 3 -33 3 0
-90z"/>
<path d="M130 3226 c0 -131 2 -155 16 -160 9 -3 65 -6 125 -6 l109 0 0 -30 0
-30 -125 0 -125 0 0 24 c0 21 -4 24 -32 22 -32 -1 -33 0 -36 47 -3 42 -5 47
-28 47 -21 0 -24 -4 -24 -38 0 -26 6 -41 20 -50 13 -8 20 -23 20 -45 0 -56 3
-57 178 -64 89 -3 173 -2 187 1 l25 6 0 215 0 215 -155 0 -155 0 0 -154z m245
49 c0 -29 -2 -30 -47 -33 l-48 -3 0 36 0 36 48 -3 c45 -3 47 -4 47 -33z"/>
<path d="M4510 3351 c0 -30 2 -31 41 -31 38 0 40 1 37 28 -3 23 -8 27 -40 30
-36 3 -38 2 -38 -27z"/>
<path d="M5037 3373 c-4 -3 -7 -42 -7 -85 l0 -78 45 0 45 0 0 85 0 85 -38 0
c-21 0 -42 -3 -45 -7z"/>
<path d="M1577 3253 c-4 -3 -7 -24 -7 -45 l0 -38 85 0 85 0 0 -60 c0 -57 -1
-60 -25 -60 -21 0 -25 5 -25 30 l0 30 -60 0 -61 0 3 -77 3 -78 218 -3 218 -2
-3 97 -3 98 -30 5 c-28 5 -30 8 -33 58 l-3 52 -178 0 c-98 0 -181 -3 -184 -7z"/>
<path d="M527 3223 c-4 -3 -7 -75 -7 -160 0 -131 2 -155 16 -160 36 -13 44 17
46 171 l3 149 -26 4 c-14 2 -29 0 -32 -4z"/>
<path d="M3753 3182 c-8 -5 -13 -48 -15 -132 l-3 -125 -236 -3 c-259 -3 -255
-1 -242 -62 l6 -30 238 0 239 0 0 -215 0 -215 -160 0 c-153 0 -160 -1 -160
-20 0 -19 7 -20 194 -20 168 0 195 2 200 16 3 9 6 190 6 403 0 288 -3 390 -12
399 -14 14 -37 15 -55 4z"/>
<path d="M3546 3172 c-3 -5 -2 -46 2 -93 l7 -84 40 -1 c65 -1 65 -1 65 97 l0
89 -54 0 c-30 0 -57 -4 -60 -8z"/>
<path d="M4628 2938 c0 -57 -1 -141 -1 -188 l-2 -85 55 0 55 0 -4 180 c-2 99
-5 183 -8 188 -2 4 -24 7 -49 7 l-45 0 -1 -102z"/>
<path d="M935 2991 l-40 -6 1 -145 2 -145 53 0 54 0 3 139 c2 129 -4 170 -27
165 -3 -1 -24 -5 -46 -8z"/>
<path d="M3087 2924 c-4 -4 -7 -130 -7 -280 0 -267 0 -274 21 -284 11 -7 32
-9 45 -6 l24 6 -2 283 -3 282 -35 3 c-20 2 -39 0 -43 -4z"/>
<path d="M0 2890 c0 -22 1 -23 24 -14 23 9 20 34 -4 34 -13 0 -20 -7 -20 -20z"/>
<path d="M2096 2894 c-12 -31 -7 -349 6 -362 14 -14 305 -17 326 -4 9 7 12 52
10 193 l-3 184 -166 3 c-145 2 -167 0 -173 -14z m252 -166 l3 -88 -71 0 -71 0
3 33 c3 28 7 32 36 35 29 3 32 6 32 38 0 31 -3 34 -28 34 -34 0 -43 7 -35 26
4 11 21 14 67 12 l61 -3 3 -87z"/>
<path d="M1567 2884 c-4 -4 -7 -117 -7 -251 l0 -243 228 2 227 3 0 245 0 245
-221 3 c-121 1 -223 -1 -227 -4z m363 -231 c0 -82 -4 -154 -8 -161 -7 -9 -45
-12 -158 -10 l-149 3 -3 145 c-1 79 0 150 2 157 4 10 43 13 161 13 l155 0 0
-147z"/>
<path d="M1670 2645 l0 -105 100 0 100 0 0 105 0 105 -100 0 -100 0 0 -105z"/>
<path d="M2512 2808 c3 -40 5 -43 33 -43 28 0 30 3 33 43 l3 42 -36 0 -36 0 3
-42z"/>
<path d="M2638 2810 l4 -40 177 2 176 3 3 38 3 37 -183 0 -184 0 4 -40z"/>
<path d="M3925 2827 c-3 -7 -4 -114 -3 -237 l3 -225 215 0 215 0 0 235 0 235
-213 3 c-166 2 -214 0 -217 -11z m268 -77 l88 0 -3 -137 -3 -138 -130 0 -130
0 -3 137 -3 137 28 4 c16 2 37 3 48 1 11 -2 60 -4 108 -4z"/>
<path d="M4060 2610 l0 -91 83 3 82 3 3 88 3 87 -86 0 -85 0 0 -90z"/>
<path d="M4430 2601 l0 -241 24 -6 c14 -3 34 -3 45 1 21 6 21 11 19 243 l-3
237 -42 3 -43 3 0 -240z"/>
<path d="M5004 2807 c-2 -7 -3 -60 -2 -118 l3 -104 58 -3 57 -3 0 121 0 120
-55 0 c-37 0 -57 -4 -61 -13z"/>
<path d="M3350 2752 c0 -27 -20 -42 -57 -42 l-34 0 3 -122 3 -123 208 -3 207
-2 0 155 0 155 -165 0 c-152 0 -165 -1 -165 -18z m245 -147 l0 -60 -33 -3
c-33 -3 -34 -3 -27 27 l7 31 -51 0 -51 0 0 35 0 36 78 -3 77 -3 0 -60z"/>
<path d="M0 2685 l0 -35 54 0 c46 0 56 -3 61 -20 4 -12 5 -94 4 -183 l-3 -162
58 -3 c34 -2 64 2 72 9 11 9 14 49 14 195 l0 184 -24 0 c-18 0 -25 6 -28 23
-3 21 -8 22 -105 25 l-103 3 0 -36z"/>
<path d="M1100 2666 l0 -26 -100 0 -100 0 0 -40 0 -39 98 -3 97 -3 3 -64 c3
-53 6 -64 23 -68 18 -5 19 -15 19 -135 0 -121 -1 -130 -20 -135 -17 -5 -20
-14 -20 -69 l0 -64 193 2 192 3 0 50 0 50 -52 3 c-48 3 -53 5 -53 27 0 22 5
24 53 27 l52 3 0 55 0 55 -37 3 -38 3 0 95 0 94 -105 0 -104 0 -3 98 -3 97
-47 3 c-46 3 -48 2 -48 -22z"/>
<path d="M2695 2681 l-170 -6 -5 -110 -5 -110 -72 -3 -73 -3 0 -174 0 -175 35
0 c39 0 38 -2 39 85 1 58 2 60 29 63 16 2 34 -1 41 -7 19 -16 466 -16 476 -1
7 12 3 413 -5 436 -4 12 -44 13 -290 5z m170 -216 l0 -140 -170 0 -170 0 0 25
0 25 143 3 142 3 0 115 0 115 27 -3 27 -3 1 -140z m-185 90 c0 -33 -2 -35 -35
-35 -32 0 -35 3 -35 28 0 36 6 42 42 42 25 0 28 -3 28 -35z"/>
<path d="M325 2658 c-3 -7 -6 -107 -7 -223 l-3 -210 -37 -3 -38 -3 -2 -202 -3
-202 -117 -3 -118 -3 0 -34 0 -35 165 0 165 0 0 -30 0 -30 -70 0 -70 0 0 -105
0 -106 113 3 112 3 0 595 0 595 -43 3 c-28 2 -44 -1 -47 -10z"/>
<path d="M4630 2485 l0 -125 50 0 50 0 0 125 0 125 -50 0 -50 0 0 -125z"/>
<path d="M0 2420 c0 -143 1 -150 20 -150 19 0 20 7 20 150 0 143 -1 150 -20
150 -19 0 -20 -7 -20 -150z"/>
<path d="M2095 2448 c-3 -7 -4 -90 -3 -183 l3 -170 100 0 100 0 3 178 2 177
-34 0 -35 0 -3 -137 -3 -138 -30 0 -30 0 -3 138 c-2 109 -5 137 -16 137 -8 0
-21 3 -30 6 -9 3 -18 0 -21 -8z"/>
<path d="M5000 2346 c0 -9 15 -15 43 -18 53 -5 77 0 77 18 0 10 -16 14 -60 14
-45 0 -60 -4 -60 -14z"/>
<path d="M1570 1940 l0 -380 55 0 54 0 3 113 3 112 98 3 c97 3 97 3 97 -21 0
-22 5 -25 40 -25 l40 -1 0 65 0 64 -140 0 -140 0 0 30 0 30 159 0 c123 0 161
-3 170 -14 8 -9 11 -57 9 -147 l-3 -134 -77 -3 c-65 -2 -78 0 -78 13 0 11 12
15 50 15 49 0 50 1 50 29 0 28 -3 30 -52 36 -29 4 -78 5 -108 3 l-55 -3 -3
-82 -3 -82 174 -3 c96 -2 181 -2 190 0 14 3 17 27 19 185 l3 182 30 0 30 0 3
-302 2 -303 -85 0 -85 0 0 -45 0 -45 129 0 c79 0 132 4 136 10 4 6 3 61 -1
122 -6 95 -9 111 -25 115 -16 4 -17 12 -13 52 9 75 2 71 133 71 118 0 121 0
127 24 3 13 4 38 2 57 -3 31 -6 34 -43 39 -38 5 -40 7 -40 40 l0 35 127 3 127
3 7 -26 c10 -40 -1 -55 -41 -55 l-35 0 0 -95 0 -95 -55 0 c-54 0 -55 0 -55
-30 0 -28 3 -30 35 -30 24 0 35 -5 35 -15 0 -10 -11 -15 -35 -15 l-36 0 3
-152 3 -153 135 0 135 0 3 58 c3 53 1 57 -19 57 -19 0 -21 4 -15 31 5 26 2 32
-15 36 -14 4 -19 12 -17 27 2 16 10 21 33 21 29 0 30 -2 30 -42 0 -51 8 -60
42 -44 21 10 28 9 34 -1 5 -7 9 -73 9 -146 l0 -133 78 3 77 3 3 195 c1 118 6
197 13 200 14 9 -7 61 -23 59 -7 -1 -68 -1 -135 0 -121 1 -123 1 -123 24 0 13
-5 28 -11 34 -8 8 -5 13 10 18 21 6 21 10 19 248 l-3 242 -192 3 -193 2 0 -79
c0 -58 -4 -82 -15 -91 -8 -7 -15 -18 -15 -25 0 -7 -13 0 -30 15 -27 26 -30 34
-30 94 0 46 -4 66 -12 66 -39 1 -636 10 -651 10 -15 0 -18 7 -15 38 3 34 6 37
36 40 l32 3 0 64 0 65 168 2 167 3 0 40 0 40 -222 3 -223 2 0 -380z m1038 -27
c-3 -27 -6 -28 -60 -31 l-58 -3 0 31 0 30 61 0 c60 0 60 0 57 -27z m348 -606
c17 -32 16 -32 -3 -14 -11 9 -32 17 -46 17 -23 0 -27 4 -27 30 l0 31 30 -16
c16 -8 37 -30 46 -48z m-331 13 c0 -34 1 -35 43 -38 28 -2 42 -8 42 -18 0 -11
-16 -14 -70 -14 l-70 0 0 48 c0 55 5 64 35 60 16 -2 20 -10 20 -38z m218 33
c-7 -2 -21 -2 -30 0 -10 3 -4 5 12 5 17 0 24 -2 18 -5z m75 -90 c-10 -2 -26
-2 -35 0 -10 3 -2 5 17 5 19 0 27 -2 18 -5z m42 -14 c0 -5 -4 -9 -10 -9 -5 0
-10 7 -10 16 0 8 5 12 10 9 6 -3 10 -10 10 -16z"/>
<path d="M3087 2273 c-4 -3 -7 -41 -7 -84 0 -59 3 -78 15 -83 8 -3 15 -17 15
-31 0 -24 -3 -26 -32 -23 -30 3 -33 6 -36 41 -3 29 -7 37 -23 37 -19 0 -20 -6
-17 -107 l3 -108 88 -3 c57 -2 94 1 103 9 19 15 21 328 2 347 -13 13 -100 17
-111 5z"/>
<path d="M4620 2272 c0 -14 26 -22 71 -22 39 0 39 0 39 -40 l0 -40 -50 0 -50
0 0 -166 0 -165 48 3 47 3 0 110 0 110 -40 6 c-46 6 -31 17 30 21 l40 3 0 90
0 90 -67 3 c-38 2 -68 -1 -68 -6z"/>
<path d="M3294 2256 c-3 -8 -4 -27 -2 -43 l3 -28 170 -5 170 -5 3 -42 c3 -40
5 -43 33 -43 l30 0 -3 88 -3 87 -198 3 c-164 2 -198 0 -203 -12z"/>
<path d="M3777 2258 c-2 -7 -2 -28 0 -45 l5 -33 139 0 138 0 3 -47 c3 -46 4
-48 36 -51 l32 -3 0 95 0 96 -174 0 c-130 0 -175 -3 -179 -12z"/>
<path d="M4194 2256 c-3 -8 -4 -27 -2 -43 l3 -28 103 -3 103 -3 -3 43 -3 43
-98 3 c-78 2 -98 0 -103 -12z"/>
<path d="M4457 2186 c8 -112 4 -116 -98 -116 -72 0 -79 2 -79 19 0 26 -15 34
-46 27 -24 -6 -25 -8 -22 -104 l3 -97 33 -3 c31 -3 32 -2 32 32 l0 36 130 0
c154 0 142 -14 138 165 l-3 120 -47 3 -47 3 6 -85z"/>
<path d="M5020 2120 c0 -100 3 -120 15 -120 8 0 15 -9 15 -20 0 -16 7 -20 35
-20 l35 0 0 140 0 140 -50 0 -50 0 0 -120z"/>
<path d="M50 2096 c0 -122 -1 -125 -22 -128 -20 -3 -23 -10 -26 -50 l-3 -48
90 0 91 0 0 175 0 175 -65 0 -65 0 0 -124z"/>
<path d="M1770 2135 l0 -35 125 0 125 0 0 35 0 35 -125 0 -125 0 0 -35z"/>
<path d="M2522 2128 c3 -9 35 -14 101 -16 82 -2 97 0 97 13 0 12 -17 15 -101
15 -76 0 -100 -3 -97 -12z"/>
<path d="M2790 2116 c0 -19 6 -25 28 -28 l27 -3 3 -157 3 -158 134 0 135 0 0
35 0 35 -95 0 -94 0 -3 148 -3 147 -67 3 c-66 3 -68 2 -68 -22z"/>
<path d="M3370 2095 c0 -11 -12 -15 -50 -15 l-50 0 0 -155 0 -156 88 3 87 3 3
168 2 167 -40 0 c-29 0 -40 -4 -40 -15z"/>
<path d="M4863 2073 l-33 -4 0 -155 0 -154 45 0 46 0 -3 157 c-2 94 -7 157
-13 158 -5 1 -25 0 -42 -2z"/>
<path d="M3515 1988 c-3 -7 -6 -74 -7 -148 l-3 -135 -175 -3 c-124 -2 -176 -6
-182 -15 -6 -9 -8 -9 -8 1 0 9 -36 12 -145 12 l-145 0 0 -80 0 -80 79 0 80 0
3 38 3 37 112 1 112 2 3 -107 3 -106 43 -3 42 -3 0 111 0 111 88 -3 87 -3 5
-35 c5 -33 7 -35 47 -38 41 -3 42 -2 45 30 3 33 4 33 60 36 l57 3 3 -38 3 -38
155 -3 c85 -1 165 0 178 3 l22 5 0 225 0 226 -147 -3 -148 -3 -3 -157 -3 -158
75 0 c41 0 81 -3 90 -6 14 -5 16 5 16 69 l0 76 -52 3 -53 3 0 45 0 45 80 0 80
0 3 -148 3 -148 -143 3 -143 3 -3 179 c-1 112 -7 185 -13 193 -7 7 -29 13 -50
13 l-39 0 0 -52 c0 -61 -11 -58 -14 4 l-2 43 -47 3 c-32 2 -49 -1 -52 -10z
m145 -153 c0 -18 7 -28 25 -35 22 -8 25 -16 25 -54 0 -43 -1 -45 -34 -51 -59
-11 -71 -5 -74 42 -3 37 -6 42 -30 45 -22 2 -28 9 -30 35 -3 32 -3 32 50 36
29 2 56 4 61 5 4 1 7 -9 7 -23z"/>
<path d="M1237 1894 c-4 -4 -7 -58 -7 -121 l0 -114 108 3 107 3 0 115 0 115
-101 3 c-55 1 -103 0 -107 -4z"/>
<path d="M4368 1803 l-3 -78 -40 0 c-40 0 -40 0 -43 43 -3 42 -4 43 -35 40
l-32 -3 0 -210 0 -210 45 -5 45 -5 5 -60 5 -60 195 0 195 0 3 107 3 107 29 6
c17 4 44 4 60 0 l30 -7 0 -79 0 -79 91 0 90 0 -3 43 c-3 42 -3 42 -45 45 l-42
3 -3 147 -3 147 -200 0 c-110 0 -206 4 -212 8 -9 6 -13 36 -13 93 l0 84 -60 0
-59 0 -3 -77z m310 -235 l-3 -33 -184 -3 c-196 -3 -201 -2 -201 46 l0 22 196
0 195 0 -3 -32z m-173 -198 c0 -33 -2 -35 -37 -38 l-38 -3 0 41 0 41 38 -3
c35 -3 37 -5 37 -38z"/>
<path d="M5053 1853 l-63 -4 0 -37 c0 -20 3 -61 6 -89 l7 -53 58 0 59 0 0 95
c0 52 -1 94 -2 93 -2 -1 -31 -3 -65 -5z"/>
<path d="M1097 1823 c-4 -3 -7 -30 -7 -60 l0 -53 40 0 40 0 0 60 0 60 -33 0
c-19 0 -37 -3 -40 -7z"/>
<path d="M0 1652 c0 -16 8 -32 20 -39 15 -10 20 -26 22 -75 l3 -63 38 -3 37
-3 0 105 0 106 -60 0 c-59 0 -60 -1 -60 -28z"/>
<path d="M1095 1647 c-3 -6 -4 -183 -3 -392 l3 -380 140 0 140 0 3 28 3 27
-100 0 -101 0 0 40 c0 36 3 40 25 40 15 0 25 -6 25 -15 0 -19 30 -25 115 -22
l70 2 9 -40 c4 -22 10 -46 12 -52 2 -9 31 -13 99 -13 l95 0 0 30 0 30 -64 0
c-56 0 -66 3 -71 20 -10 32 3 40 61 40 36 0 54 4 55 13 1 6 0 93 -1 192 -2
206 0 213 67 200 42 -8 53 -19 53 -52 0 -29 23 -35 130 -31 l85 3 0 85 0 85
-237 3 -238 2 -2 -212 -3 -213 -91 -3 -92 -3 -7 72 c-8 77 -2 93 36 87 20 -2
24 -8 22 -38 -1 -19 -6 -36 -12 -38 -30 -10 -5 -22 44 -22 l56 0 -3 138 -3
137 -55 1 c-30 1 -60 2 -67 3 -8 1 -13 28 -15 84 l-3 82 -39 3 c-21 2 -43 -1
-49 -7 -14 -14 -57 -14 -57 -1 0 6 9 10 20 10 17 0 20 7 20 45 0 45 0 45 -35
45 -20 0 -38 -6 -40 -13z m792 -207 c2 -8 -8 -28 -22 -45 -21 -26 -27 -28 -52
-19 -23 8 -29 16 -31 47 l-3 38 53 -3 c38 -2 53 -7 55 -18z m-662 -295 c0 -65
-2 -70 -22 -73 -22 -3 -23 -1 -23 73 0 74 1 76 23 73 20 -3 22 -8 22 -73z"/>
<path d="M5097 1583 c-13 -12 -7 -33 8 -33 8 0 15 9 15 20 0 20 -11 26 -23 13z"/>
<path d="M2367 1504 c-4 -4 -7 -67 -7 -141 l0 -133 35 0 36 0 -3 138 -3 137
-25 3 c-14 2 -29 0 -33 -4z"/>
<path d="M510 1470 c0 -18 7 -20 70 -20 63 0 70 2 70 20 0 18 -7 20 -70 20
-63 0 -70 -2 -70 -20z"/>
<path d="M709 1468 c-1 -7 -2 -26 -3 -43 l-1 -30 -95 0 -95 0 -3 -154 c-1 -94
1 -158 8 -165 14 -14 353 -21 379 -6 20 10 21 19 21 160 0 150 0 150 23 150
13 0 28 -5 35 -12 20 -20 33 5 30 58 l-3 49 -147 3 c-114 2 -148 0 -149 -10z
m101 -263 c0 -33 -2 -35 -34 -35 -28 0 -35 4 -40 25 -9 36 -1 45 40 45 32 0
34 -2 34 -35z"/>
<path d="M3417 1463 c-9 -8 -9 -326 -1 -347 5 -13 23 -16 94 -16 102 0 100 2
100 -113 l0 -68 93 3 92 3 0 40 0 40 -50 5 -50 5 -3 43 -3 42 188 -2 188 -3 3
-188 2 -188 108 3 107 3 3 78 c3 74 2 78 -22 88 -39 18 -56 5 -56 -41 0 -39
-1 -40 -35 -40 l-35 0 -2 188 -3 187 -292 3 -293 2 0 55 0 55 -46 0 -45 0 3
38 3 37 78 3 c86 3 80 10 81 -83 l1 -40 223 -3 223 -2 -3 102 -3 103 -140 0
-140 0 0 -40 0 -40 88 -3 c79 -3 87 -5 87 -22 0 -19 -7 -20 -115 -20 l-115 0
0 50 c0 83 -13 90 -173 90 -74 0 -137 -3 -140 -7z"/>
<path d="M3090 1426 c0 -30 4 -35 28 -39 l27 -4 -27 -2 -28 -1 0 -84 c0 -49 4
-88 11 -91 5 -4 22 -4 36 0 l25 6 -4 104 c-3 84 -7 107 -22 124 -29 32 -46 27
-46 -13z"/>
<path d="M117 1383 c-4 -3 -7 -12 -7 -20 0 -10 19 -13 75 -13 68 0 75 2 75 20
0 18 -7 20 -68 20 -38 0 -72 -3 -75 -7z"/>
<path d="M322 1218 l3 -173 40 0 40 0 3 173 2 172 -45 0 -45 0 2 -172z"/>
<path d="M4134 1306 c-3 -8 -4 -25 -2 -38 3 -20 9 -23 51 -26 l47 -3 0 40 0
41 -45 0 c-30 0 -47 -5 -51 -14z"/>
<path d="M54 1267 c-3 -8 -4 -52 -2 -98 l3 -84 100 0 100 0 3 98 3 97 -101 0
c-75 0 -102 -3 -106 -13z m111 -88 c8 -23 -7 -39 -37 -39 -18 0 -26 39 -11 53
14 14 42 6 48 -14z"/>
<path d="M1720 1065 l0 -195 75 0 75 0 0 111 0 111 28 -2 c53 -4 52 -5 52 85
l0 85 -115 0 -115 0 0 -195z"/>
<path d="M4835 1247 c-3 -7 -4 -67 -3 -133 l3 -119 80 0 80 0 0 130 0 130 -78
3 c-58 2 -79 -1 -82 -11z m135 -142 c0 -21 -5 -25 -30 -25 -25 0 -30 4 -30 25
0 21 5 25 30 25 25 0 30 -4 30 -25z"/>
<path d="M3247 1233 c-4 -3 -7 -35 -7 -70 l0 -63 45 0 45 0 0 70 0 70 -38 0
c-21 0 -42 -3 -45 -7z"/>
<path d="M4670 1135 l0 -55 -40 0 -40 0 0 -45 0 -45 80 0 80 0 0 100 0 100
-40 0 -40 0 0 -55z"/>
<path d="M4192 1108 c2 -60 6 -73 21 -76 13 -3 17 3 17 27 l0 31 125 0 125 0
0 45 0 45 -145 0 -146 0 3 -72z"/>
<path d="M2014 1156 c-3 -8 -4 -23 -2 -33 3 -16 20 -18 193 -23 105 -3 196 -9
203 -13 6 -5 12 -26 12 -48 l0 -39 70 0 c77 0 88 8 76 55 -6 23 -11 25 -60 25
-58 0 -66 7 -66 61 l0 29 -210 0 c-174 0 -212 -2 -216 -14z"/>
<path d="M2684 1066 c-3 -8 -4 -25 -2 -38 3 -20 9 -23 48 -23 45 0 45 0 48 38
l3 37 -46 0 c-30 0 -47 -5 -51 -14z"/>
<path d="M4470 1035 c0 -34 5 -47 19 -55 35 -18 41 -12 41 45 0 54 0 55 -30
55 -29 0 -30 -2 -30 -45z"/>
<path d="M1962 1033 l3 -38 147 0 c151 0 177 -6 165 -39 -4 -10 -19 -16 -42
-16 l-35 0 0 -54 c0 -54 0 -55 -32 -58 -31 -3 -33 -5 -33 -43 0 -38 2 -40 33
-43 26 -3 32 -7 32 -27 0 -24 -1 -24 -122 -27 l-123 -3 0 -240 0 -240 203 -3
202 -2 -2 167 -3 168 -52 3 c-53 3 -53 3 -53 -27 0 -29 -2 -30 -52 -33 l-53
-3 0 -55 0 -55 44 -3 c39 -3 42 -5 37 -25 -3 -12 -6 -26 -6 -30 0 -4 -37 -7
-82 -5 l-83 3 0 160 0 160 158 3 158 3 -3 87 -3 87 -40 5 c-39 5 -40 6 -43 48
-3 35 0 42 15 43 10 1 25 3 33 4 8 1 21 3 28 4 8 1 12 22 12 71 l0 70 -180 0
c-113 0 -180 4 -180 10 0 6 -12 10 -26 10 -23 0 -25 -3 -22 -37z m376 -325
c-2 -28 -8 -34 -30 -36 -26 -3 -28 -1 -28 32 0 33 2 36 31 36 28 0 30 -2 27
-32z"/>
<path d="M3100 995 c0 -11 11 -15 41 -15 40 0 41 -1 38 -32 -5 -74 -10 -70
109 -68 59 1 122 2 140 1 l32 -1 -2 -192 -3 -193 -178 -3 c-146 -2 -179 -5
-183 -17 -4 -10 -20 -15 -45 -15 l-39 0 0 -80 c0 -75 -1 -80 -23 -85 -13 -4
-30 -5 -38 -3 -12 2 -14 -23 -17 -144 l-3 -148 32 0 c30 0 31 0 24 40 -7 39
-6 40 24 40 29 0 31 -2 31 -40 0 -38 2 -40 30 -40 l30 0 2 177 3 178 225 5
225 5 3 247 c2 237 1 249 -18 268 -11 11 -33 20 -50 20 -28 0 -30 2 -30 40 0
22 5 40 10 40 6 0 10 7 10 15 0 13 -28 15 -190 15 -162 0 -190 -2 -190 -15z"/>
<path d="M3877 1004 c-4 -4 -7 -70 -7 -146 0 -152 -1 -149 62 -152 l33 -1 0
150 0 150 -40 3 c-23 2 -44 0 -48 -4z"/>
<path d="M4250 990 c0 -19 6 -20 86 -20 76 0 85 2 82 18 -3 14 -16 17 -86 20
-77 3 -82 2 -82 -18z"/>
<path d="M90 780 l0 -180 190 0 190 0 0 180 0 180 -190 0 -190 0 0 -180z m190
-41 l0 -40 -37 3 c-36 3 -38 5 -41 41 l-3 37 40 0 41 0 0 -41z"/>
<path d="M554 945 c-13 -34 3 -44 78 -47 l73 -3 3 -55 c2 -30 8 -58 14 -61 20
-13 -11 -69 -37 -69 -28 0 -35 17 -35 81 l0 50 -47 -3 c-31 -2 -48 -7 -47 -15
1 -7 2 -58 3 -113 l1 -100 100 0 100 0 0 34 c0 30 3 35 28 38 23 3 27 7 26 36
0 17 -1 79 -2 137 l-2 105 -125 0 c-102 0 -127 -3 -131 -15z"/>
<path d="M912 808 l3 -123 48 -3 47 -3 0 125 0 126 -50 0 -51 0 3 -122z"/>
<path d="M2534 917 c-2 -7 -3 -71 -2 -143 l3 -129 217 -3 218 -2 5 22 c7 28
-1 244 -10 258 -10 16 -424 13 -431 -3z m346 -117 l0 -40 -90 0 -90 0 0 40 0
40 90 0 90 0 0 -40z"/>
<path d="M1925 878 c3 -18 9 -53 12 -78 6 -51 15 -60 60 -60 60 0 63 5 63 91
l0 79 -71 0 -71 0 7 -32z"/>
<path d="M4586 895 c-4 -12 -10 -13 -30 -4 -53 25 -57 15 -54 -163 l3 -163 27
-3 c21 -3 30 2 38 20 11 23 11 23 218 23 l207 0 3 153 3 152 -205 0 c-172 0
-205 -2 -210 -15z m244 -125 l0 -50 -64 0 c-71 0 -76 4 -68 63 l4 37 64 0 64
0 0 -50z"/>
<path d="M3087 894 c-4 -4 -7 -81 -7 -171 l0 -163 159 0 c136 0 160 2 165 16
11 30 7 229 -6 242 -8 8 -55 12 -144 12 l-133 0 -3 32 c-3 31 -17 45 -31 32z
m183 -184 c0 -16 -7 -20 -30 -20 -23 0 -30 4 -30 20 0 16 7 20 30 20 23 0 30
-4 30 -20z"/>
<path d="M4372 733 l3 -168 30 0 30 0 0 165 0 165 -33 3 -32 3 2 -168z"/>
<path d="M3709 828 c-2 -7 -2 -164 1 -348 l5 -335 40 0 40 0 3 183 2 182 163
0 c89 0 168 -4 174 -8 9 -6 13 -58 15 -182 l3 -175 31 -3 c52 -5 55 5 52 234
l-3 209 -215 6 c-118 3 -216 6 -217 7 -2 1 -3 56 -3 122 l0 120 -44 0 c-26 0
-45 -5 -47 -12z"/>
<path d="M1117 793 c-4 -3 -7 -64 -7 -135 l0 -128 169 0 c102 0 171 4 173 10
2 5 2 66 0 135 l-3 125 -163 0 c-89 0 -166 -3 -169 -7z"/>
<path d="M1547 794 c-9 -9 -9 -236 -1 -258 7 -17 59 -22 82 -8 9 7 12 41 10
138 l-3 129 -40 3 c-23 2 -44 0 -48 -4z"/>
<path d="M1722 773 c2 -22 9 -29 30 -31 19 -2 28 -10 30 -25 2 -16 11 -23 31
-25 23 -3 27 -8 27 -34 l0 -30 -62 4 -63 3 -3 -80 c-2 -67 0 -82 15 -93 17
-13 17 -14 1 -26 -20 -15 -22 -49 -11 -244 6 -119 7 -122 29 -122 31 0 38 30
32 122 -7 98 -4 106 46 110 41 3 41 3 44 46 l3 42 -40 0 c-39 0 -41 2 -41 29
0 27 3 30 38 33 l37 3 3 173 2 172 -75 0 -76 0 3 -27z"/>
<path d="M4242 672 c-33 -5 -25 -36 11 -40 21 -3 27 1 27 17 0 24 -7 28 -38
23z"/>
<path d="M896 565 c-3 -9 -6 -32 -6 -51 l0 -34 66 0 65 0 -3 48 -3 47 -56 3
c-45 2 -58 0 -63 -13z"/>
<path d="M2533 563 c-2 -6 -3 -24 -1 -40 l3 -28 220 0 220 0 0 35 0 35 -219 5
c-161 4 -220 2 -223 -7z"/>
<path d="M670 555 c-4 -5 -7 -23 -6 -40 l1 -30 78 -3 78 -3 -3 42 -3 42 -68 1
c-38 1 -72 -3 -77 -9z"/>
<path d="M453 529 c-14 -14 -6 -39 12 -39 18 0 26 15 19 34 -7 19 -16 20 -31
5z"/>
<path d="M562 508 c2 -18 9 -23 33 -23 23 0 30 4 30 20 0 15 -8 21 -33 23 -30
3 -33 1 -30 -20z"/>
<path d="M1260 396 l0 -65 43 -3 c40 -3 42 -5 47 -38 l5 -35 140 0 140 0 0 40
0 40 -127 3 -128 3 0 24 c0 21 5 25 29 25 29 0 41 14 41 51 0 17 -8 19 -95 19
l-95 0 0 -64z"/>
<path d="M3875 437 c-3 -7 -4 -74 -3 -148 l3 -134 103 -3 103 -3 -3 148 -3
148 -98 3 c-74 2 -99 0 -102 -11z m145 -107 c0 -17 -7 -20 -45 -20 -38 0 -45
3 -45 20 0 17 7 20 45 20 38 0 45 -3 45 -20z"/>
<path d="M0 390 l0 -40 40 0 40 0 0 -86 0 -85 38 3 37 3 3 109 c2 71 -1 113
-9 122 -8 10 -34 14 -80 14 l-69 0 0 -40z"/>
<path d="M210 289 l0 -130 38 3 37 3 3 105 c4 139 1 150 -43 150 l-35 0 0
-131z"/>
<path d="M4717 413 c-4 -3 -7 -84 -7 -180 l0 -173 45 0 44 0 3 137 3 138 158
3 157 3 0 39 0 40 -198 0 c-109 0 -202 -3 -205 -7z"/>
<path d="M426 394 c-9 -23 -7 -217 2 -232 7 -9 51 -12 188 -10 l179 3 0 125 0
125 -181 3 c-159 2 -182 0 -188 -14z m190 -89 c10 -26 -5 -65 -25 -65 -38 0
-51 11 -51 46 0 32 2 34 35 34 23 0 38 -6 41 -15z"/>
<path d="M4377 403 c-4 -3 -7 -62 -7 -130 l0 -124 123 3 122 3 3 105 c4 160
12 150 -122 150 -62 0 -116 -3 -119 -7z m143 -123 c0 -39 -1 -40 -35 -40 -34
0 -35 1 -35 40 0 39 1 40 35 40 34 0 35 -1 35 -40z"/>
<path d="M2507 363 c-4 -3 -7 -84 -7 -180 l0 -173 150 0 150 0 0 180 0 180
-143 0 c-79 0 -147 -3 -150 -7z m183 -118 c0 -34 -1 -35 -40 -35 -39 0 -40 1
-40 35 0 34 1 35 40 35 39 0 40 -1 40 -35z m4 -101 c9 -3 16 -17 16 -30 0 -23
-3 -24 -60 -24 -56 0 -60 1 -60 23 0 13 3 27 7 30 8 9 76 9 97 1z"/>
<path d="M1107 344 c-4 -4 -7 -18 -7 -31 0 -22 -4 -25 -45 -27 -18 -1 -20 -9
-23 -68 l-3 -66 68 -4 c37 -2 74 -2 81 0 9 3 12 29 10 101 l-3 96 -35 3 c-20
2 -39 0 -43 -4z"/>
<path d="M2 148 l-2 -148 141 0 140 0 -3 33 -3 32 -132 3 -132 3 -4 112 c-3
107 -3 105 -5 -35z"/>
<path d="M4860 175 l0 -115 110 0 110 0 0 115 0 115 -110 0 -110 0 0 -115z"/>
<path d="M897 273 c-4 -3 -7 -66 -7 -140 l0 -133 25 0 25 0 0 140 c0 129 -1
140 -18 140 -10 0 -22 -3 -25 -7z"/>
<path d="M3188 263 c-2 -5 -2 -44 1 -88 6 -77 7 -80 31 -80 23 0 25 4 28 58
l3 57 129 0 129 0 3 -72 3 -73 43 -3 42 -3 0 105 0 106 -204 0 c-113 0 -206
-3 -208 -7z"/>
<path d="M1347 173 c-4 -3 -7 -44 -7 -90 l0 -83 150 0 150 0 0 80 c0 63 -3 82
-15 86 -8 4 -22 1 -30 -6 -12 -10 -15 -9 -15 4 0 14 -15 16 -113 16 -63 0
-117 -3 -120 -7z m181 -85 c-6 -16 -128 -24 -128 -9 0 6 26 12 58 14 31 2 61
4 65 5 5 1 7 -4 5 -10z"/>
<path d="M3300 121 c0 -26 4 -30 33 -33 24 -2 33 -8 35 -25 3 -20 10 -23 43
-23 l40 0 -3 53 -3 52 -72 3 -73 3 0 -30z"/>
<path d="M2210 68 c0 -37 4 -45 27 -55 15 -7 49 -13 75 -13 l48 0 0 55 0 55
-75 0 -75 0 0 -42z"/>
<path d="M1890 50 l0 -50 49 0 c28 0 53 5 56 10 4 6 4 29 0 50 l-7 40 -49 0
-49 0 0 -50z"/>
<path d="M560 50 l0 -31 58 3 c53 3 57 5 57 28 0 23 -4 25 -57 28 l-58 3 0
-31z"/>
<path d="M1227 73 c-4 -3 -7 -21 -7 -40 0 -30 3 -33 30 -33 28 0 30 2 30 40 0
35 -3 40 -23 40 -13 0 -27 -3 -30 -7z"/>
<path d="M1030 35 l0 -35 50 0 50 0 0 35 0 35 -50 0 -50 0 0 -35z"/>
<path d="M4140 20 c0 -19 5 -21 48 -18 34 2 47 7 47 18 0 11 -13 16 -47 18
-43 3 -48 1 -48 -18z"/>
<path d="M5111 24 c0 -11 3 -14 6 -6 3 7 2 16 -1 19 -3 4 -6 -2 -5 -13z"/>
<path d="M3465 10 c-4 -7 55 -10 170 -10 115 0 174 3 170 10 -8 13 -332 13
-340 0z"/>
</g>
</svg>